# Derived from Hamster-Systems HBM blast_door OBJ meshes; see UPSTREAM-112.txt
o base
usemtl base
v -0.500000 0.000000 0.500000
v -0.500000 1.000000 0.500000
v -0.500000 0.000000 -0.500000
v -0.500000 1.000000 -0.500000
v 0.500000 0.000000 0.500000
v 0.500000 1.000000 0.500000
v 0.500000 0.000000 -0.500000
v 0.500000 1.000000 -0.500000
v -0.150000 1.000000 0.250000
v -0.150000 1.000000 -0.250000
v 0.150000 1.000000 0.250000
v 0.150000 1.000000 -0.250000
v -0.100000 0.750000 0.150000
v -0.100000 0.750000 -0.150000
v 0.100000 0.750000 -0.150000
v 0.100000 0.750000 0.150000
v -0.375000 0.875000 -0.750000
v 0.375000 0.875000 -0.750000
v 0.375000 0.125000 -0.750000
v -0.375000 0.125000 -0.750000
v 0.375000 0.875000 0.750000
v -0.375000 0.875000 0.750000
v -0.375000 0.125000 0.750000
v 0.375000 0.125000 0.750000
vt 0.500000 0.020384
vt 0.739808 0.020384
vt 0.739808 0.260192
vt 0.260192 0.260192
vt 0.020384 0.260192
vt 0.020384 0.020384
vt 0.979616 0.020384
vt 0.979616 0.260192
vt 0.156897 0.716781
vt 0.156897 0.764742
vt 0.084954 0.764742
vt 0.260192 0.020384
vt 0.344125 0.080336
vt 0.344125 0.200240
vt 0.180878 0.655642
vt 0.084954 0.716781
vt 0.060974 0.825882
vt 0.020384 0.776733
vt 0.221467 0.704791
vt 0.416067 0.200240
vt 0.500000 0.260192
vt 0.416067 0.080336
vt 0.267269 0.367989
vt 0.267268 0.547845
vt 0.087413 0.547845
vt 0.087413 0.367989
vt 0.057437 0.300961
vt 0.334297 0.338013
vt 0.297244 0.614873
vt 0.020384 0.577821
vt 0.442094 0.547845
vt 0.442094 0.367989
vt 0.621950 0.367989
vt 0.621950 0.547845
vt 0.651926 0.614873
vt 0.375065 0.577821
vt 0.412118 0.300961
vt 0.688978 0.338013
vt 0.060974 0.655642
vt 0.180878 0.825882
vt 0.020384 0.704791
vt 0.221467 0.776733
vt 0.297244 0.300961
vt 0.334297 0.577821
vt 0.057437 0.614873
vt 0.020384 0.338013
vt 0.412118 0.614873
vt 0.375065 0.338013
vt 0.651926 0.300961
vt 0.688978 0.577821
vn -1.000000 0.000000 0.000000
vn 1.000000 0.000000 0.000000
vn 0.000000 -1.000000 0.000000
vn 0.000000 1.000000 0.000000
vn -0.980600 0.196100 0.000000
vn 0.980600 0.196100 0.000000
vn 0.000000 0.371400 -0.928500
vn 0.000000 0.371400 0.928500
vn 0.000000 0.000000 -1.000000
vn 0.000000 0.894400 -0.447200
vn 0.894400 0.000000 -0.447200
vn 0.000000 -0.894400 -0.447200
vn -0.894400 0.000000 -0.447200
vn 0.000000 0.000000 1.000000
vn 0.000000 0.894400 0.447200
vn -0.894400 0.000000 0.447200
vn 0.000000 -0.894400 0.447200
vn 0.894400 0.000000 0.447200
f 4/1/1 3/2/1 1/3/1
f 6/4/2 5/5/2 7/6/2
f 3/2/3 7/7/3 5/8/3
f 15/9/4 14/10/4 13/11/4
f 8/12/4 12/13/4 11/14/4
f 12/15/5 15/9/5 16/16/5
f 9/17/6 13/11/6 14/10/6
f 16/16/7 13/11/7 9/18/7
f 14/10/8 15/9/8 12/19/8
f 6/4/4 11/14/4 9/20/4
f 2/21/4 9/20/4 10/22/4
f 4/1/4 10/22/4 12/13/4
f 18/23/9 19/24/9 20/25/9
f 18/23/10 17/26/10 4/27/10
f 19/24/11 18/23/11 8/28/11
f 20/25/12 19/24/12 7/29/12
f 17/26/13 20/25/13 3/30/13
f 22/31/14 23/32/14 24/33/14
f 22/31/15 21/34/15 6/35/15
f 23/32/16 22/31/16 2/36/16
f 24/33/17 23/32/17 1/37/17
f 21/34/18 24/33/18 5/38/18
f 2/21/1 4/1/1 1/3/1
f 8/12/2 6/4/2 7/6/2
f 1/3/3 3/2/3 5/8/3
f 16/16/4 15/9/4 13/11/4
f 6/4/4 8/12/4 11/14/4
f 11/39/5 12/15/5 16/16/5
f 10/40/6 9/17/6 14/10/6
f 11/41/7 16/16/7 9/18/7
f 10/42/8 14/10/8 12/19/8
f 2/21/4 6/4/4 9/20/4
f 4/1/4 2/21/4 10/22/4
f 8/12/4 4/1/4 12/13/4
f 17/26/9 18/23/9 20/25/9
f 8/43/10 18/23/10 4/27/10
f 7/44/11 19/24/11 8/28/11
f 3/45/12 20/25/12 7/29/12
f 4/46/13 17/26/13 3/30/13
f 21/34/14 22/31/14 24/33/14
f 2/47/15 22/31/15 6/35/15
f 1/48/16 23/32/16 2/36/16
f 5/49/17 24/33/17 1/37/17
f 6/50/18 21/34/18 5/38/18
o block
usemtl block
v -0.500000 3.000000 0.500000
v -0.500000 4.000000 0.500000
v -0.500000 3.000000 -0.500000
v -0.500000 4.000000 -0.500000
v 0.500000 3.000000 0.500000
v 0.500000 4.000000 0.500000
v 0.500000 3.000000 -0.500000
v 0.500000 4.000000 -0.500000
v -0.375000 3.875000 -0.750000
v 0.375000 3.875000 -0.750000
v 0.375000 3.125000 -0.750000
v -0.375000 3.125000 -0.750000
v 0.375000 3.875000 0.750000
v -0.375000 3.875000 0.750000
v -0.375000 3.125000 0.750000
v 0.375000 3.125000 0.750000
v 0.300000 3.000000 0.500000
v 0.300000 3.000000 -0.500000
v -0.300000 3.000000 0.500000
v -0.300000 3.000000 -0.500000
vt 0.261012 0.256902
vt 0.022204 0.256902
vt 0.022204 0.018094
vt 0.499820 0.018094
vt 0.738628 0.018094
vt 0.738628 0.256902
vt 0.250367 0.613434
vt 0.090555 0.547258
vt 0.268124 0.547258
vt 0.499820 0.256902
vt 0.261012 0.018094
vt 0.268124 0.369689
vt 0.090555 0.369689
vt 0.060961 0.303513
vt 0.334300 0.340094
vt 0.971758 0.253591
vt 0.924331 0.253591
vt 0.924331 0.016455
vt 0.024379 0.576852
vt 0.438442 0.547258
vt 0.438442 0.369689
vt 0.616011 0.369689
vt 0.616011 0.547258
vt 0.645606 0.613434
vt 0.372266 0.576852
vt 0.786389 0.018094
vt 0.786389 0.256902
vt 0.682187 0.340094
vt 0.456199 0.303513
vt 0.598254 0.303513
vt 0.297719 0.613434
vt 0.108312 0.613434
vt 0.060960 0.613434
vt 0.297719 0.303513
vt 0.334300 0.576852
vt 0.971758 0.016455
vt 0.024379 0.340094
vt 0.408848 0.613434
vt 0.372266 0.340094
vt 0.682187 0.576852
vt 0.645606 0.303513
vt 0.408848 0.303513
vn -1.000000 0.000000 0.000000
vn 1.000000 0.000000 0.000000
vn 0.000000 -0.894400 -0.447200
vn 0.000000 1.000000 0.000000
vn 0.000000 0.000000 -1.000000
vn 0.000000 0.894400 -0.447200
vn 0.894400 0.000000 -0.447200
vn 0.000000 -1.000000 0.000000
vn -0.894400 0.000000 -0.447200
vn 0.000000 0.000000 1.000000
vn 0.000000 0.894400 0.447200
vn -0.894400 0.000000 0.447200
vn 0.894400 0.000000 0.447200
vn 0.000000 -0.894400 0.447200
f 28/51/19 27/52/19 25/53/19
f 30/54/20 29/55/20 31/56/20
f 42/57/21 36/58/21 35/59/21
f 32/60/22 28/51/22 26/61/22
f 34/62/23 35/59/23 36/58/23
f 34/62/24 33/63/24 28/64/24
f 35/59/25 34/62/25 32/65/25
f 27/66/26 44/67/26 43/68/26
f 33/63/27 36/58/27 27/69/27
f 38/70/28 39/71/28 40/72/28
f 38/70/29 37/73/29 30/74/29
f 39/71/30 38/70/30 26/75/30
f 29/55/26 41/76/26 42/77/26
f 37/73/31 40/72/31 29/78/31
f 39/71/32 43/79/32 41/80/32
f 26/61/19 28/51/19 25/53/19
f 32/60/20 30/54/20 31/56/20
f 35/59/21 31/81/21 42/57/21
f 42/57/21 44/82/21 36/58/21
f 27/83/21 36/58/21 44/82/21
f 30/54/22 32/60/22 26/61/22
f 33/63/23 34/62/23 36/58/23
f 32/84/24 34/62/24 28/64/24
f 31/85/25 35/59/25 32/65/25
f 25/86/26 27/66/26 43/68/26
f 28/87/27 33/63/27 27/69/27
f 37/73/28 38/70/28 40/72/28
f 26/88/29 38/70/29 30/74/29
f 25/89/30 39/71/30 26/75/30
f 31/56/26 29/55/26 42/77/26
f 30/90/31 37/73/31 29/78/31
f 41/80/32 29/91/32 40/72/32
f 40/72/32 39/71/32 41/80/32
f 25/92/32 43/79/32 39/71/32
o tooth
usemtl tooth
v -0.150000 1.000000 0.250000
v -0.150000 1.000000 -0.250000
v 0.150000 1.000000 0.250000
v 0.150000 1.000000 -0.250000
v -0.100000 0.750000 0.150000
v -0.100000 0.750000 -0.150000
v 0.100000 0.750000 -0.150000
v 0.100000 0.750000 0.150000
v -0.300000 1.000000 0.500000
v 0.300000 1.000000 0.500000
v -0.300000 1.000000 -0.500000
v 0.300000 1.000000 -0.500000
v -0.300000 2.000000 -0.500000
v -0.300000 2.000000 0.500000
v 0.300000 2.000000 0.500000
v 0.300000 2.000000 -0.500000
vt 0.434968 0.430653
vt 0.525462 0.430653
vt 0.525462 0.490982
vt 0.404804 0.567886
vt 0.434968 0.490982
vt 0.555627 0.353748
vt 0.353748 0.415570
vt 0.606682 0.506064
vt 0.017368 0.534735
vt 0.017367 0.353748
vt 0.092779 0.398995
vt 0.319013 0.353748
vt 0.243601 0.398995
vt 0.319013 0.534735
vt 0.243602 0.489488
vt 0.092779 0.489488
vt 0.982633 0.017367
vt 0.982633 0.319013
vt 0.680987 0.319013
vt 0.500000 0.017367
vt 0.500000 0.319013
vt 0.198355 0.319013
vt 0.198355 0.017368
vt 0.017367 0.319013
vt 0.680987 0.017367
vt 0.555626 0.567886
vt 0.404804 0.353748
vt 0.353748 0.506064
vt 0.606682 0.415570
vt 0.017367 0.017368
vn 0.000000 -1.000000 0.000000
vn 0.980600 -0.196100 0.000000
vn -0.980600 -0.196100 0.000000
vn 0.000000 -0.371400 0.928500
vn 0.000000 -0.371400 -0.928500
vn 1.000000 0.000000 0.000000
vn -1.000000 0.000000 0.000000
vn 0.000000 0.000000 -1.000000
vn 0.000000 0.000000 1.000000
f 49/93/33 50/94/33 51/95/33
f 47/96/34 52/97/34 51/95/34
f 46/98/35 50/94/35 49/93/35
f 45/99/36 49/93/36 52/97/36
f 48/100/37 51/95/37 50/94/37
f 54/101/33 53/102/33 45/103/33
f 53/102/33 55/104/33 46/105/33
f 55/104/33 56/106/33 48/107/33
f 56/106/33 54/101/33 47/108/33
f 56/109/38 60/110/38 59/111/38
f 53/112/39 58/113/39 57/114/39
f 55/115/40 57/114/40 60/116/40
f 54/117/41 59/111/41 58/113/41
f 52/97/33 49/93/33 51/95/33
f 48/118/34 47/96/34 51/95/34
f 45/119/35 46/98/35 49/93/35
f 47/120/36 45/99/36 52/97/36
f 46/121/37 48/100/37 50/94/37
f 47/108/33 54/101/33 45/103/33
f 45/103/33 53/102/33 46/105/33
f 46/105/33 55/104/33 48/107/33
f 48/107/33 56/106/33 47/108/33
f 54/117/38 56/109/38 59/111/38
f 55/115/39 53/112/39 57/114/39
f 56/122/40 55/115/40 60/116/40
f 53/112/41 54/117/41 58/113/41
o slider1
usemtl slider
v -0.300000 2.000000 0.500000
v 0.300000 2.000000 0.500000
v -0.300000 2.000000 -0.500000
v 0.300000 2.000000 -0.500000
v -0.300000 3.000000 -0.500000
v -0.300000 3.000000 0.500000
v 0.300000 3.000000 0.500000
v 0.300000 3.000000 -0.500000
vt 0.984190 0.359560
vt 0.984190 0.662179
vt 0.681571 0.662179
vt 0.500000 0.359560
vt 0.500000 0.662179
vt 0.197381 0.662179
vt 0.197381 0.359560
vt 0.015810 0.662179
vt 0.681571 0.359560
vt 0.015810 0.359560
vn 1.000000 0.000000 0.000000
vn -1.000000 0.000000 0.000000
vn 0.000000 0.000000 -1.000000
vn 0.000000 0.000000 1.000000
f 64/123/42 68/124/42 67/125/42
f 61/126/43 66/127/43 65/128/43
f 63/129/44 65/128/44 68/130/44
f 62/131/45 67/125/45 66/127/45
f 62/131/42 64/123/42 67/125/42
f 63/129/43 61/126/43 65/128/43
f 64/132/44 63/129/44 68/130/44
f 61/126/45 62/131/45 66/127/45
o slider2
usemtl slider
v -0.300000 2.000000 0.500000
v 0.300000 2.000000 0.500000
v -0.300000 2.000000 -0.500000
v 0.300000 2.000000 -0.500000
v -0.300000 3.000000 -0.500000
v -0.300000 3.000000 0.500000
v 0.300000 3.000000 0.500000
v 0.300000 3.000000 -0.500000
vt 0.984190 0.359560
vt 0.984190 0.662179
vt 0.681571 0.662179
vt 0.500000 0.359560
vt 0.500000 0.662179
vt 0.197381 0.662179
vt 0.197381 0.359560
vt 0.015810 0.662179
vt 0.681571 0.359560
vt 0.015810 0.359560
vn 1.000000 0.000000 0.000000
vn -1.000000 0.000000 0.000000
vn 0.000000 0.000000 -1.000000
vn 0.000000 0.000000 1.000000
f 72/133/46 76/134/46 75/135/46
f 69/136/47 74/137/47 73/138/47
f 71/139/48 73/138/48 76/140/48
f 70/141/49 75/135/49 74/137/49
f 70/141/46 72/133/46 75/135/46
f 71/139/47 69/136/47 73/138/47
f 72/142/48 71/139/48 76/140/48
f 69/136/49 70/141/49 74/137/49
o slider3
usemtl slider
v -0.300000 2.000000 0.500000
v 0.300000 2.000000 0.500000
v -0.300000 2.000000 -0.500000
v 0.300000 2.000000 -0.500000
v -0.300000 3.000000 -0.500000
v -0.300000 3.000000 0.500000
v 0.300000 3.000000 0.500000
v 0.300000 3.000000 -0.500000
vt 0.984190 0.359560
vt 0.984190 0.662179
vt 0.681571 0.662179
vt 0.500000 0.359560
vt 0.500000 0.662179
vt 0.197381 0.662179
vt 0.197381 0.359560
vt 0.015810 0.662179
vt 0.681571 0.359560
vt 0.015810 0.359560
vn 1.000000 0.000000 0.000000
vn -1.000000 0.000000 0.000000
vn 0.000000 0.000000 -1.000000
vn 0.000000 0.000000 1.000000
f 80/143/50 84/144/50 83/145/50
f 77/146/51 82/147/51 81/148/51
f 79/149/52 81/148/52 84/150/52
f 78/151/53 83/145/53 82/147/53
f 78/151/50 80/143/50 83/145/50
f 79/149/51 77/146/51 81/148/51
f 80/152/52 79/149/52 84/150/52
f 77/146/53 78/151/53 82/147/53
o slider4
usemtl slider
v -0.300000 2.000000 0.500000
v 0.300000 2.000000 0.500000
v -0.300000 2.000000 -0.500000
v 0.300000 2.000000 -0.500000
v -0.300000 3.000000 -0.500000
v -0.300000 3.000000 0.500000
v 0.300000 3.000000 0.500000
v 0.300000 3.000000 -0.500000
vt 0.984190 0.359560
vt 0.984190 0.662179
vt 0.681571 0.662179
vt 0.500000 0.359560
vt 0.500000 0.662179
vt 0.197381 0.662179
vt 0.197381 0.359560
vt 0.015810 0.662179
vt 0.681571 0.359560
vt 0.015810 0.359560
vn 1.000000 0.000000 0.000000
vn -1.000000 0.000000 0.000000
vn 0.000000 0.000000 -1.000000
vn 0.000000 0.000000 1.000000
f 88/153/54 92/154/54 91/155/54
f 85/156/55 90/157/55 89/158/55
f 87/159/56 89/158/56 92/160/56
f 86/161/57 91/155/57 90/157/57
f 86/161/54 88/153/54 91/155/54
f 87/159/55 85/156/55 89/158/55
f 88/162/56 87/159/56 92/160/56
f 85/156/57 86/161/57 90/157/57
